<?xml version="1.0" encoding="UTF-8" standalone="no"?>
<!-- Created with Inkscape (http://www.inkscape.org/) -->

<svg
   version="1.1"
   id="svg2"
   width="1652.3584"
   height="1334.382"
   viewBox="0 0 1652.3584 1334.382"
   sodipodi:docname="9870522.png"
   xmlns:inkscape="http://www.inkscape.org/namespaces/inkscape"
   xmlns:sodipodi="http://sodipodi.sourceforge.net/DTD/sodipodi-0.dtd"
   xmlns="http://www.w3.org/2000/svg"
   xmlns:svg="http://www.w3.org/2000/svg">
  <defs
     id="defs6" />
  <sodipodi:namedview
     id="namedview4"
     pagecolor="#ffffff"
     bordercolor="#000000"
     borderopacity="0.25"
     inkscape:showpageshadow="2"
     inkscape:pageopacity="0.0"
     inkscape:pagecheckerboard="0"
     inkscape:deskcolor="#d1d1d1"
     showgrid="false" />
  <g
     inkscape:groupmode="layer"
     inkscape:label="Image"
     id="g8"
     transform="translate(1214.6089,1687.8766)">
    <g
       id="g170"
       transform="translate(23.859578,20.987235)">
      <path
         style="fill:#00d400;stroke-width:3.70131"
         d="m -426.60747,-511.49179 c -272.46406,-189.07735 -269.86471,-187.25618 -270.75456,-189.69719 -0.43681,-1.19811 104.72687,-75.33486 233.69708,-164.74835 l 234.49123,-162.56997 1.07029,93.34649 c 0.85449,74.5272 2.19486,94.1341 6.64845,97.25304 8.55952,5.99449 106.59903,8.41335 162.867369,4.01837 196.863371,-15.37658 338.623501,-82.61018 463.213391,-219.6915 l 9.26415,-10.193 -2.44169,47.6009 c -4.20369,81.9507 -21.89371,147.6981 -54.58882,202.88671 -60.17208,101.56916 -173.66632,184.06591 -302.86781,220.14885 -57.3903656,16.02776 -98.070499,21.10029 -185.06852,23.0767 -45.77094,1.03984 -85.66062,3.16165 -88.64373,4.71517 -4.25231,2.21446 -5.85899,23.13229 -7.43845,96.8441 l -2.01463,94.01952 z M -1238.468,-1035.7234 c 0.1104,-45.0632 8.8959,-110.1429 19.7773,-146.5001 43.4512,-145.1812 168.9564,-258.3037 340.16085,-306.5995 57.91328,-16.337 101.88107,-21.8867 193.08085,-24.3714 53.13651,-1.4476 80.92169,-3.4963 83.54115,-6.1597 2.27444,-2.3126 4.37618,-42.9962 4.99813,-96.7503 l 1.07332,-92.7594 233.69709,162.2055 c 128.53341,89.213 233.6971,163.4472 233.6971,164.9647 0,2.6818 -463.64597,326.4199 -467.48674,326.4199 -1.05716,0 -1.92209,-42.0219 -1.92209,-93.3821 0,-90.0421 -0.28969,-93.5128 -8.09485,-97.0379 -13.04131,-5.8895 -155.87657,-4.8612 -205.44623,1.4791 -101.0957,12.9309 -193.43558,43.6766 -269.97018,89.89 -40.2854,24.3253 -100.2715,73.6473 -131.8387,108.401 -12.3147,13.5578 -23.0455,24.6505 -23.8463,24.6505 -0.8009,0 -1.4402,-6.5026 -1.4207,-14.4503 z"
         id="path172"
         inkscape:export-filename="../Documents/Quatrix Projects/SWAPS/swaps/assets/images/swaps-logo.svg"
         inkscape:export-xdpi="96"
         inkscape:export-ydpi="96" />
    </g>
  </g>
</svg>
